<svg width="120" height="40" viewBox="0 0 91 22" fill="none" xmlns="http://www.w3.org/2000/svg">
    <g clip-path="url(#clip0_32_9)">
        <path d="M5.76406 12.1506C3.18973 13.3398 -0.672136 16.2464 4.47504 18.3593C9.62222 20.4722 21.7593 18.8799 27.1844 17.8196C35.6574 16.2444 51.2567 13.8947 45.8691 17.0979"
              stroke="#6DAFD0" stroke-width="2" stroke-linecap="round"/>
        <path d="M5.89959 9.15364C3.32526 10.3428 -0.536607 13.2495 4.61057 15.3624C9.75775 17.4753 21.8948 15.883 27.3199 14.8227C35.793 13.2474 51.3922 10.8978 46.0046 14.101"
              stroke="#6DAFD0" stroke-width="2" stroke-linecap="round"/>
        <path d="M5.52273 15L2.34091 3.36364H3.77273L6.20455 12.8409H6.31818L8.79545 3.36364H10.3864L12.8636 12.8409H12.9773L15.4091 3.36364H16.8409L13.6591 15H12.2045L9.63636 5.72727H9.54545L6.97727 15H5.52273ZM20.1705 15.2045C19.6174 15.2045 19.1155 15.1004 18.6648 14.892C18.214 14.6799 17.8561 14.375 17.5909 13.9773C17.3258 13.5758 17.1932 13.0909 17.1932 12.5227C17.1932 12.0227 17.2917 11.6174 17.4886 11.3068C17.6856 10.9924 17.9489 10.7462 18.2784 10.5682C18.608 10.3902 18.9716 10.2576 19.3693 10.1705C19.7708 10.0795 20.1742 10.0076 20.5795 9.95455C21.1098 9.88636 21.5398 9.83523 21.8693 9.80114C22.2027 9.76326 22.4451 9.70076 22.5966 9.61364C22.7519 9.52652 22.8295 9.375 22.8295 9.15909V9.11364C22.8295 8.55303 22.6761 8.11742 22.3693 7.80682C22.0663 7.49621 21.6061 7.34091 20.9886 7.34091C20.3485 7.34091 19.8466 7.48106 19.483 7.76136C19.1193 8.04167 18.8636 8.34091 18.7159 8.65909L17.4432 8.20455C17.6705 7.67424 17.9735 7.26136 18.3523 6.96591C18.7348 6.66667 19.1515 6.45833 19.6023 6.34091C20.0568 6.2197 20.5038 6.15909 20.9432 6.15909C21.2235 6.15909 21.5455 6.19318 21.9091 6.26136C22.2765 6.32576 22.6307 6.46023 22.9716 6.66477C23.3163 6.86932 23.6023 7.17803 23.8295 7.59091C24.0568 8.00379 24.1705 8.55682 24.1705 9.25V15H22.8295V13.8182H22.7614C22.6705 14.0076 22.5189 14.2102 22.3068 14.4261C22.0947 14.642 21.8125 14.8258 21.4602 14.9773C21.108 15.1288 20.678 15.2045 20.1705 15.2045ZM20.375 14C20.9053 14 21.3523 13.8958 21.7159 13.6875C22.0833 13.4792 22.3598 13.2102 22.5455 12.8807C22.7348 12.5511 22.8295 12.2045 22.8295 11.8409V10.6136C22.7727 10.6818 22.6477 10.7443 22.4545 10.8011C22.2652 10.8542 22.0455 10.9015 21.7955 10.9432C21.5492 10.9811 21.3087 11.0152 21.0739 11.0455C20.8428 11.072 20.6553 11.0947 20.5114 11.1136C20.1629 11.1591 19.8371 11.233 19.5341 11.3352C19.2348 11.4337 18.9924 11.5833 18.8068 11.7841C18.625 11.9811 18.5341 12.25 18.5341 12.5909C18.5341 13.0568 18.7064 13.4091 19.0511 13.6477C19.3996 13.8826 19.8409 14 20.375 14ZM30.4134 6.27273V7.40909H25.8906V6.27273H30.4134ZM27.2088 4.18182H28.5497V12.5C28.5497 12.8788 28.6046 13.1629 28.7145 13.3523C28.8281 13.5379 28.9721 13.6629 29.1463 13.7273C29.3243 13.7879 29.5118 13.8182 29.7088 13.8182C29.8565 13.8182 29.9777 13.8106 30.0724 13.7955C30.1671 13.7765 30.2429 13.7614 30.2997 13.75L30.5724 14.9545C30.4815 14.9886 30.3546 15.0227 30.1918 15.0568C30.0289 15.0947 29.8224 15.1136 29.5724 15.1136C29.1937 15.1136 28.8224 15.0322 28.4588 14.8693C28.099 14.7064 27.7997 14.4583 27.5611 14.125C27.3262 13.7917 27.2088 13.3712 27.2088 12.8636V4.18182ZM35.9957 15.1818C35.1548 15.1818 34.4295 14.9962 33.8196 14.625C33.2135 14.25 32.7457 13.7273 32.4162 13.0568C32.0904 12.3826 31.9276 11.5985 31.9276 10.7045C31.9276 9.81061 32.0904 9.02273 32.4162 8.34091C32.7457 7.6553 33.2041 7.12121 33.7912 6.73864C34.3821 6.35227 35.0715 6.15909 35.8594 6.15909C36.3139 6.15909 36.7628 6.23485 37.206 6.38636C37.6491 6.53788 38.0526 6.78409 38.4162 7.125C38.7798 7.46212 39.0696 7.90909 39.2855 8.46591C39.5014 9.02273 39.6094 9.70833 39.6094 10.5227V11.0909H32.8821V9.93182H38.2457C38.2457 9.43939 38.1473 9 37.9503 8.61364C37.7571 8.22727 37.4806 7.92235 37.1207 7.69886C36.7647 7.47538 36.3442 7.36364 35.8594 7.36364C35.3253 7.36364 34.8632 7.49621 34.473 7.76136C34.0866 8.02273 33.7893 8.36364 33.581 8.78409C33.3726 9.20455 33.2685 9.6553 33.2685 10.1364V10.9091C33.2685 11.5682 33.3821 12.1269 33.6094 12.5852C33.8404 13.0398 34.1605 13.3864 34.5696 13.625C34.9787 13.8598 35.4541 13.9773 35.9957 13.9773C36.348 13.9773 36.6662 13.928 36.9503 13.8295C37.2382 13.7273 37.4863 13.5758 37.6946 13.375C37.9029 13.1705 38.0639 12.9167 38.1776 12.6136L39.473 12.9773C39.3366 13.4167 39.1075 13.803 38.7855 14.1364C38.4635 14.4659 38.0658 14.7235 37.5923 14.9091C37.1188 15.0909 36.5866 15.1818 35.9957 15.1818ZM41.6491 15V6.27273H42.9446V7.59091H43.0355C43.1946 7.15909 43.4825 6.80871 43.8991 6.53977C44.3158 6.27083 44.7855 6.13636 45.3082 6.13636C45.4067 6.13636 45.5298 6.13826 45.6776 6.14205C45.8253 6.14583 45.937 6.15152 46.0128 6.15909V7.52273C45.9673 7.51136 45.8632 7.49432 45.7003 7.47159C45.5412 7.44508 45.3726 7.43182 45.1946 7.43182C44.7704 7.43182 44.3916 7.52083 44.0582 7.69886C43.7287 7.87311 43.4673 8.11553 43.2741 8.42614C43.0848 8.73295 42.9901 9.08333 42.9901 9.47727V15H41.6491Z"
              fill="#07090A"/>
        <path d="M49.8977 15L46.7159 3.36364H48.1477L50.5795 12.8409H50.6932L53.1705 3.36364H54.7614L57.2386 12.8409H57.3523L59.7841 3.36364H61.2159L58.0341 15H56.5795L54.0114 5.72727H53.9205L51.3523 15H49.8977ZM64.5455 15.2045C63.9924 15.2045 63.4905 15.1004 63.0398 14.892C62.589 14.6799 62.2311 14.375 61.9659 13.9773C61.7008 13.5758 61.5682 13.0909 61.5682 12.5227C61.5682 12.0227 61.6667 11.6174 61.8636 11.3068C62.0606 10.9924 62.3239 10.7462 62.6534 10.5682C62.983 10.3902 63.3466 10.2576 63.7443 10.1705C64.1458 10.0795 64.5492 10.0076 64.9545 9.95455C65.4848 9.88636 65.9148 9.83523 66.2443 9.80114C66.5777 9.76326 66.8201 9.70076 66.9716 9.61364C67.1269 9.52652 67.2045 9.375 67.2045 9.15909V9.11364C67.2045 8.55303 67.0511 8.11742 66.7443 7.80682C66.4413 7.49621 65.9811 7.34091 65.3636 7.34091C64.7235 7.34091 64.2216 7.48106 63.858 7.76136C63.4943 8.04167 63.2386 8.34091 63.0909 8.65909L61.8182 8.20455C62.0455 7.67424 62.3485 7.26136 62.7273 6.96591C63.1098 6.66667 63.5265 6.45833 63.9773 6.34091C64.4318 6.2197 64.8788 6.15909 65.3182 6.15909C65.5985 6.15909 65.9205 6.19318 66.2841 6.26136C66.6515 6.32576 67.0057 6.46023 67.3466 6.66477C67.6913 6.86932 67.9773 7.17803 68.2045 7.59091C68.4318 8.00379 68.5455 8.55682 68.5455 9.25V15H67.2045V13.8182H67.1364C67.0455 14.0076 66.8939 14.2102 66.6818 14.4261C66.4697 14.642 66.1875 14.8258 65.8352 14.9773C65.483 15.1288 65.053 15.2045 64.5455 15.2045ZM64.75 14C65.2803 14 65.7273 13.8958 66.0909 13.6875C66.4583 13.4792 66.7348 13.2102 66.9205 12.8807C67.1098 12.5511 67.2045 12.2045 67.2045 11.8409V10.6136C67.1477 10.6818 67.0227 10.7443 66.8295 10.8011C66.6402 10.8542 66.4205 10.9015 66.1705 10.9432C65.9242 10.9811 65.6837 11.0152 65.4489 11.0455C65.2178 11.072 65.0303 11.0947 64.8864 11.1136C64.5379 11.1591 64.2121 11.233 63.9091 11.3352C63.6098 11.4337 63.3674 11.5833 63.1818 11.7841C63 11.9811 62.9091 12.25 62.9091 12.5909C62.9091 13.0568 63.0814 13.4091 63.4261 13.6477C63.7746 13.8826 64.2159 14 64.75 14ZM74.8793 6.27273V7.40909H70.1747V6.27273H74.8793ZM71.5838 15V5.06818C71.5838 4.56818 71.7012 4.15151 71.9361 3.81818C72.1709 3.48485 72.4759 3.23485 72.8509 3.06818C73.2259 2.90151 73.6217 2.81818 74.0384 2.81818C74.3679 2.81818 74.6368 2.8447 74.8452 2.89773C75.0535 2.95076 75.2088 3 75.3111 3.04545L74.9247 4.20455C74.8565 4.18182 74.7618 4.15341 74.6406 4.11932C74.5232 4.08523 74.3679 4.06818 74.1747 4.06818C73.7315 4.06818 73.4115 4.17992 73.2145 4.40341C73.0213 4.62689 72.9247 4.95455 72.9247 5.38636V15H71.5838ZM80.0582 15.1818C79.2173 15.1818 78.492 14.9962 77.8821 14.625C77.276 14.25 76.8082 13.7273 76.4787 13.0568C76.1529 12.3826 75.9901 11.5985 75.9901 10.7045C75.9901 9.81061 76.1529 9.02273 76.4787 8.34091C76.8082 7.6553 77.2666 7.12121 77.8537 6.73864C78.4446 6.35227 79.134 6.15909 79.9219 6.15909C80.3764 6.15909 80.8253 6.23485 81.2685 6.38636C81.7116 6.53788 82.1151 6.78409 82.4787 7.125C82.8423 7.46212 83.1321 7.90909 83.348 8.46591C83.5639 9.02273 83.6719 9.70833 83.6719 10.5227V11.0909H76.9446V9.93182H82.3082C82.3082 9.43939 82.2098 9 82.0128 8.61364C81.8196 8.22727 81.5431 7.92235 81.1832 7.69886C80.8272 7.47538 80.4067 7.36364 79.9219 7.36364C79.3878 7.36364 78.9257 7.49621 78.5355 7.76136C78.1491 8.02273 77.8518 8.36364 77.6435 8.78409C77.4351 9.20455 77.331 9.6553 77.331 10.1364V10.9091C77.331 11.5682 77.4446 12.1269 77.6719 12.5852C77.9029 13.0398 78.223 13.3864 78.6321 13.625C79.0412 13.8598 79.5166 13.9773 80.0582 13.9773C80.4105 13.9773 80.7287 13.928 81.0128 13.8295C81.3007 13.7273 81.5488 13.5758 81.7571 13.375C81.9654 13.1705 82.1264 12.9167 82.2401 12.6136L83.5355 12.9773C83.3991 13.4167 83.17 13.803 82.848 14.1364C82.526 14.4659 82.1283 14.7235 81.6548 14.9091C81.1813 15.0909 80.6491 15.1818 80.0582 15.1818ZM85.7116 15V6.27273H87.0071V7.59091H87.098C87.2571 7.15909 87.545 6.80871 87.9616 6.53977C88.3783 6.27083 88.848 6.13636 89.3707 6.13636C89.4692 6.13636 89.5923 6.13826 89.7401 6.14205C89.8878 6.14583 89.9995 6.15152 90.0753 6.15909V7.52273C90.0298 7.51136 89.9257 7.49432 89.7628 7.47159C89.6037 7.44508 89.4351 7.43182 89.2571 7.43182C88.8329 7.43182 88.4541 7.52083 88.1207 7.69886C87.7912 7.87311 87.5298 8.11553 87.3366 8.42614C87.1473 8.73295 87.0526 9.08333 87.0526 9.47727V15H85.7116Z"
              fill="#0284C5"/>
    </g>
    <defs>
        <clipPath id="clip0_32_9">
            <rect width="91" height="21.0115" fill="white"/>
        </clipPath>
    </defs>
</svg>
